
<?xml version="1.0" encoding="utf-8"?>
<!DOCTYPE svg PUBLIC "-//W3C//DTD SVG 1.0//EN" "http://www.w3.org/TR/2001/REC-SVG-20010904/DTD/svg10.dtd">
<svg version="1.0" xmlns="http://www.w3.org/2000/svg" width="622px" height="565px" viewBox="0 0 622 565" preserveAspectRatio="xMidYMid meet">

 <g fill="#000000">
  <path d="M 293 548.30 c -2.35 -0.60 -4.80 -1.40 -5.50 -1.80 -2.90 -1.50 -226.05 -130.30 -229.50 -132.40 l -3.75 -2.30 -3.10 -2.95 -3.15 -3 -1.45 -2.30 -1.50 -2.30 -1.90 -4.75 -1.90 -4.75 -0.15 -23.85 -0.15 -23.90 0.45 0 c 0.20 0 0.60 0.20 0.85 0.45 0.50 0.50 11.20 6.70 51.75 30.05 7 4.05 17.95 10.35 24.25 14 16 9.25 31.80 18.40 46.75 27 7 4.05 18.70 10.80 26 15 7.30 4.25 17.40 10.10 22.50 13 5.10 2.95 15.20 8.80 22.50 13 14.40 8.35 29.85 17.25 51.90 29.95 l 14.15 8.15 0.85 -0.35 c 0.45 -0.15 4 -2.15 7.85 -4.35 16.30 -9.50 24.95 -14.45 31.75 -18.40 4 -2.30 8.50 -4.90 10 -5.80 2.45 -1.45 13.85 -8.05 52.50 -30.35 16.85 -9.70 28.30 -16.35 42.75 -24.70 7.15 -4.15 15.25 -8.80 18 -10.40 24.05 -13.85 44.20 -25.50 45.15 -26.10 l 1.10 -0.65 0 -30 c 0 -16.50 -0.10 -30 -0.25 -30 -0.15 0 -5.90 3.30 -12.85 7.30 -13.30 7.70 -22.40 12.95 -47.15 27.20 -8.25 4.75 -21.30 12.30 -29 16.75 -7.70 4.45 -20.20 11.65 -27.75 16 -7.55 4.35 -19.25 11.10 -26 15 -6.75 3.90 -18.45 10.65 -26 15 -7.55 4.35 -19.35 11.15 -26.15 15.10 -6.85 3.95 -12.95 7.45 -13.60 7.75 l -1.15 0.50 -10.45 -5.95 c -9.05 -5.20 -39.55 -22.75 -86.15 -49.65 -7.30 -4.20 -18.40 -10.60 -24.75 -14.25 -6.30 -3.65 -21.30 -12.30 -33.25 -19.20 -11.95 -6.85 -40.80 -23.50 -64.10 -36.90 l -42.35 -24.40 -0.05 -53.25 0 -53.30 0.75 -2.95 0.80 -3 2.10 -4.15 2.10 -4.20 2.50 -2.90 c 3.55 -4.10 5.15 -5.30 14.70 -10.80 4.55 -2.65 12.70 -7.35 18.05 -10.45 5.35 -3.10 19.75 -11.45 32 -18.50 12.25 -7.10 26.65 -15.40 32 -18.50 5.35 -3.10 15.50 -8.95 22.50 -13 7 -4.05 17.15 -9.90 22.50 -13 5.35 -3.10 19.75 -11.45 32 -18.50 21.60 -12.50 31.85 -18.40 50.90 -29.45 11.10 -6.45 13.35 -7.60 17.85 -9.20 l 3.50 -1.20 5.40 -0.25 5.35 -0.30 3.65 0.90 3.60 0.85 3.55 1.65 c 2 0.90 11.25 6.10 20.65 11.55 l 17.05 9.95 -2.40 1.40 c -2.20 1.30 -25.90 15 -64.85 37.45 -9.05 5.25 -19.30 11.15 -22.75 13.15 -3.45 2 -12.75 7.40 -20.75 12 -7.95 4.60 -18.10 10.45 -22.50 13 -4.40 2.55 -14.50 8.40 -22.50 13 -7.95 4.60 -18.10 10.45 -22.50 13 -25.75 14.90 -29.85 17.25 -30.30 17.25 -0.25 0 -0.45 0.25 -0.45 0.50 0 0.30 0.20 0.50 0.45 0.50 0.25 0 4.60 2.40 9.65 5.30 10.10 5.85 28.85 16.70 36.70 21.25 2.75 1.65 5.25 2.95 5.50 2.95 0.25 0 2.15 -1 4.20 -2.15 2.05 -1.20 8.05 -4.65 13.25 -7.70 5.25 -3 15.45 -8.90 22.75 -13.15 7.30 -4.20 17.40 -10.05 22.50 -13 5.10 -2.90 15.20 -8.75 22.50 -13 7.30 -4.20 17.40 -10.05 22.50 -13 5.10 -2.90 15.20 -8.75 22.50 -13 7.30 -4.20 17.40 -10.05 22.50 -13 5.10 -2.90 15.20 -8.75 22.50 -13 7.30 -4.20 17.55 -10.10 22.75 -13.10 5.25 -3 9.80 -5.70 10.10 -6 l 0.65 -0.50 8.60 4.95 c 4.75 2.75 22.50 12.95 39.40 22.75 16.90 9.75 36.05 20.80 42.50 24.50 6.45 3.75 13.80 7.95 16.25 9.40 2.50 1.40 10 5.75 16.75 9.60 6.75 3.90 14.20 8.25 16.60 9.75 l 4.30 2.65 3.20 3.45 c 1.70 1.90 3.55 4.10 4 4.90 l 0.85 1.45 -3.10 1.80 c -5.70 3.30 -14.95 8.65 -39.10 22.60 -13.20 7.65 -26 15.10 -28.50 16.55 -2.45 1.45 -7.55 4.40 -11.25 6.50 -7.55 4.40 -23.80 13.80 -38.50 22.25 -5.35 3.15 -14 8.15 -19.25 11.15 -12 6.90 -56.55 32.70 -88.25 51.05 -13.35 7.70 -25.30 14.55 -26.55 15.25 l -2.30 1.25 -5.20 -3 c -2.85 -1.70 -14.60 -8.50 -26.15 -15.20 l -20.95 -12.20 1.05 -0.35 c 0.55 -0.20 9 -5 18.80 -10.65 9.80 -5.65 25.80 -14.90 35.55 -20.55 16.95 -9.80 24.45 -14.10 76 -43.90 12.40 -7.15 34.20 -19.75 48.50 -28.05 14.30 -8.25 26.95 -15.50 28.10 -16.05 2.05 -0.95 2.75 -1.75 1.55 -1.75 -0.45 0 -8.15 -4.40 -45.05 -25.65 l -6.85 -3.95 -0.70 0.25 c -0.65 0.25 -10.45 5.90 -73.80 42.50 -13.35 7.70 -29.20 16.90 -35.25 20.35 -6.05 3.50 -20.45 11.80 -32 18.50 -54 31.20 -66.75 38.55 -67.50 38.80 l -0.75 0.30 -7.60 -4.40 c -4.20 -2.40 -13.25 -7.65 -20.15 -11.60 -6.85 -4 -18.35 -10.60 -25.50 -14.75 -7.15 -4.15 -18.05 -10.45 -24.25 -14 -22.45 -13 -26.60 -15.35 -26.80 -15.35 -0.10 0 -0.15 13.55 -0.10 30.05 l 0.15 30.05 23.50 13.60 c 12.95 7.50 31.05 17.95 40.25 23.30 16.65 9.60 60.55 35 73.50 42.50 3.70 2.15 21.05 12.20 38.50 22.30 17.45 10.10 32.15 18.60 32.60 18.85 l 0.80 0.55 0.70 -0.55 c 0.35 -0.30 3.65 -2.25 7.30 -4.35 3.60 -2.10 9.60 -5.50 13.25 -7.60 3.60 -2.15 10.75 -6.25 15.85 -9.20 5.10 -2.90 15.20 -8.75 22.50 -13 7.30 -4.20 19 -10.95 26 -15 7 -4.05 17.05 -9.80 22.25 -12.85 18.30 -10.55 36.10 -20.85 48.75 -28.15 7 -4.05 15.75 -9.05 19.40 -11.15 3.60 -2.15 9.60 -5.55 13.25 -7.65 7.60 -4.40 22.05 -12.80 31.75 -18.35 31.55 -18.30 39.55 -22.85 39.95 -22.85 l 0.40 0 -0.25 83.85 -0.30 83.90 -0.55 1.75 c -0.30 0.95 -0.80 2.45 -1.05 3.25 -0.65 2.05 -2.25 5.20 -4.10 7.90 l -1.50 2.20 -3.15 2.95 -3.15 2.95 -4.10 2.40 c -2.25 1.30 -9.65 5.60 -16.45 9.55 -11.55 6.65 -20.65 11.90 -52.15 30.05 -6.75 3.90 -18.45 10.65 -26 15 -7.55 4.35 -19.25 11.10 -26 15 -6.75 3.90 -18.45 10.65 -26 15 -25.50 14.70 -38.20 22.05 -52 30 -7.55 4.40 -17.70 10.20 -22.55 13 l -8.80 5.05 -4.45 1.10 -4.50 1.10 -4.70 0 -4.75 -0.05 -4.25 -1.15 z "/>
 </g>
</svg>
